<svg xmlns="http://www.w3.org/2000/svg" viewBox="0 0 640 480" width="640" height="480" role="img" aria-hidden="true"><rect width="640" height="480" fill="#ece4d4"/><rect x="0" y="392" width="640" height="88" fill="#d9ceb9"/><path d="M230 110 h180 l-56 110 h-68 z" fill="#c9b99b"/><rect x="296" y="220" width="48" height="26" fill="#8a7a5c"/><path d="M250 246 h140 v120 a30 30 0 0 1 -30 30 h-80 a30 30 0 0 1 -30 -30 z" fill="#f7f3ec" stroke="#8a7a5c" stroke-width="6"/><path d="M256 330 h128 v36 a24 24 0 0 1 -24 24 h-80 a24 24 0 0 1 -24 -24 z" fill="#3b2a1a"/><circle cx="470" cy="360" r="34" fill="#1f5a3d"/><rect x="456" y="320" width="28" height="12" rx="3" fill="#17492f"/></svg>
